<svg xmlns="http://www.w3.org/2000/svg" xmlns:xlink="http://www.w3.org/1999/xlink" viewBox="0 0 15.3598 15.3598"><defs><style>.a{fill:none;}.b{clip-path:url(#a);}.c,.f{fill:#727275;}.c,.d,.e{fill-rule:evenodd;}.d{fill:#0075c3;}.e{fill:#c0392b;}</style><clipPath id="a"><rect class="a" width="15.3598" height="15.3601"/></clipPath></defs><title>haukehirsch-07</title><g class="b"><path class="c" d="M1.9525,3.331l.6579-.6585-.142-.142a.46542.46542,0,0,0-.6582.6582Zm1.8683.5513-.6585.6585.4677.468L4.2888,4.35Z"/><path class="c" d="M5.0304,4.2874,3.568,5.7501a.13653.13653,0,0,0,0,.1919l.1916.1916L5.4136,4.479l-.1913-.1913a.13551.13551,0,0,0-.0958-.0397.12961.12961,0,0,0-.0961.0394"/><path class="c" d="M12.96,8.6394H11.4182a.23954.23954,0,0,1-.1817-.0833L6.9537,4.2744a.4673.4673,0,0,0-.6571-.0006L3.5433,7.0274a.46895.46895,0,0,0,.0108.6465l.5567.5556,2.4367,2.4367a3.69743,3.69743,0,0,0,1.2265.8093,3.88434,3.88434,0,0,0,1.4709.2846.239.239,0,0,1,.0017.4779,4.36609,4.36609,0,0,1-1.6523-.318,4.17833,4.17833,0,0,1-1.3864-.9142L3.8415,8.6394H2.4001v5.5199H12.96Z"/><path class="d" d="M1.6801,8.1592H.7194a.24105.24105,0,0,0-.2398.2398v6.0004a.24088.24088,0,0,0,.2398.2398h.9607a.24088.24088,0,0,0,.2398-.2398V8.399a.24105.24105,0,0,0-.2398-.2398"/><path class="d" d="M14.6407,8.1592H13.68a.24105.24105,0,0,0-.2398.2398v6.0004a.24088.24088,0,0,0,.2398.2398h.9607a.24088.24088,0,0,0,.2398-.2398V8.399a.24105.24105,0,0,0-.2398-.2398"/><path class="e" d="M1.12,5.9046,4.9442,2.0798a.37809.37809,0,0,0,.0008-.5312.37948.37948,0,0,0-.2664-.1092.37457.37457,0,0,0-.2653.1089L.5774,5.3838a.3787.3787,0,0,0,.0111.5191l.0116.0121A.37821.37821,0,0,0,1.12,5.9046"/><path class="f" d="M12.00037,5.519H10.08a.24027.24027,0,0,1-.21924-.33789l.96-2.15918a.24953.24953,0,0,1,.43848,0l.96044,2.15918a.24027.24027,0,0,1-.21923.33789ZM10.4491,5.03851h1.18213l-.59131-1.32812Z"/><path class="f" d="M12.72009,6.47992a.24.24,0,0,1-.23974-.24023V4.07953a.23975.23975,0,1,1,.47949,0V6.23969A.24.24,0,0,1,12.72009,6.47992Z"/><path class="f" d="M13.32068,5.519h-.60059a.24.24,0,0,1-.23974-.24023V4.07953a.24.24,0,0,1,.23974-.24024h.60059a.83985.83985,0,0,1,0,1.67969Zm-.36084-.48047h.36084a.35938.35938,0,1,0,0-.71875h-.36084Z"/></g></svg>