<svg xmlns="http://www.w3.org/2000/svg" xmlns:xlink="http://www.w3.org/1999/xlink" viewBox="0 0 15.3598 15.3598"><defs><style>.a{fill:none;}.b{clip-path:url(#a);}.c,.e{fill:#727275;}.c,.f{fill-rule:evenodd;}.d,.f{fill:#0075c3;}</style><clipPath id="a"><rect class="a" width="15.3598" height="15.3601"/></clipPath></defs><title>haukehirsch-1</title><g class="b"><path class="c" d="M7.6808,4.32a3.3601,3.3601,0,1,1-2.3758.9842L5.3206,5.29a3.34969,3.34969,0,0,1,2.3602-.97m0-1.44A4.7999,4.7999,0,1,1,2.8809,7.6799,4.79985,4.79985,0,0,1,7.6808,2.88Z"/><path class="c" d="M11.1424,5.5199H13.441v4.32H11.1424a4.08208,4.08208,0,0,0,0-4.32m-9.2222,0H4.2191a4.08264,4.08264,0,0,0,0,4.32H1.9202Z"/><rect class="d" x="0.2409" y="5.2801" width="0.9599" height="4.7999"/><path class="d" d="M1.20068,10.31976h-.96A.24.24,0,0,1,.001,10.07953V5.27972a.24.24,0,0,1,.23974-.24023h.96a.24.24,0,0,1,.23975.24023v4.79981A.24.24,0,0,1,1.20068,10.31976ZM.48047,9.83929H.96094V5.52H.48047Z"/><rect class="d" x="14.1605" y="5.2801" width="0.9604" height="4.7999"/><path class="d" d="M15.12109,10.31976h-.96045a.24.24,0,0,1-.23974-.24023V5.27972a.24.24,0,0,1,.23974-.24023h.96045a.24.24,0,0,1,.23975.24023v4.79981A.24.24,0,0,1,15.12109,10.31976Zm-.7207-.48047h.481V5.52h-.481Z"/><path class="e" d="M13.20068,13.68011a.24.24,0,0,1-.23974-.24023V12.23969H11.76025a.24024.24024,0,0,1,0-.48047h1.44043a.24.24,0,0,1,.23975.24023v1.44043A.24.24,0,0,1,13.20068,13.68011Z"/><path class="e" d="M7.68066,14.88031a7.16609,7.16609,0,0,1-5.645-2.73145.24013.24013,0,1,1,.376-.29882,6.71985,6.71985,0,0,0,10.42041.1455.23982.23982,0,0,1,.36719.3086A7.1886,7.1886,0,0,1,7.68066,14.88031Z"/><path class="e" d="M3.59961,3.6H2.15869A.24.24,0,0,1,1.919,3.3598V1.92035a.23975.23975,0,1,1,.47949,0V3.11957H3.59961a.24024.24024,0,0,1,0,.48047Z"/><path class="e" d="M13.13623,3.6a.23953.23953,0,0,1-.188-.09082A6.72014,6.72014,0,0,0,2.52832,3.36469a.2402.2402,0,0,1-.36816-.3086,7.20024,7.20024,0,0,1,11.16406.1543.24061.24061,0,0,1-.03906.33789A.24319.24319,0,0,1,13.13623,3.6Z"/><path class="f" d="M8.9158,7.6799,6.961,6.4361V8.9237ZM6.8678,5.8102,9.4893,7.4784a.23893.23893,0,0,1,0,.403L6.8494,9.5612a.23893.23893,0,0,1-.3674-.2015L6.4809,6.0001a.24.24,0,0,1,.3869-.1899Zm2.8491-.1664a2.88051,2.88051,0,0,0-4.0598-.0136l-.0125.0136a2.87975,2.87975,0,1,0,4.0723,0Z"/></g></svg>