<svg xmlns="http://www.w3.org/2000/svg" xmlns:xlink="http://www.w3.org/1999/xlink" viewBox="0 0 15.3598 15.3598"><defs><style>.a{fill:none;}.b{clip-path:url(#a);}.c,.d{fill:#727275;}.d,.e,.f{fill-rule:evenodd;}.e{fill:#0075c3;}.f{fill:#c0392b;}</style><clipPath id="a"><rect class="a" width="15.3598" height="15.3601"/></clipPath></defs><title>haukehirsch-06</title><g class="b"><rect class="c" x="4.27777" y="4.96376" width="0.93115" height="0.51884" transform="translate(-2.30428 4.88871) rotate(-45.03917)"/><path class="d" d="M5.9978,5.0145,4.5354,6.4772a.136.136,0,0,0-.0394.0958.13768.13768,0,0,0,.0386.0963l.1916.1914L6.3811,5.2061l-.1914-.1913a.13578.13578,0,0,0-.0961-.0394.12919.12919,0,0,0-.0958.0391"/><path class="d" d="M13.4399,8.8792H11.8981a.23954.23954,0,0,1-.1817-.0833L7.9217,5.0009a.46865.46865,0,0,0-.6576,0L4.5224,7.7437a.46815.46815,0,0,0-.0003.6579l.0556.0556.013.0121L7.0274,10.906a3.69743,3.69743,0,0,0,1.2265.8093,3.88434,3.88434,0,0,0,1.4709.2846.239.239,0,0,1,.0017.4779,4.36609,4.36609,0,0,1-1.6523-.318,4.17833,4.17833,0,0,1-1.3864-.9142L4.3206,8.8784,2.88,8.8787v5.5204H13.4399Z"/><path class="e" d="M2.16,8.399H1.1993a.24105.24105,0,0,0-.2398.2399v6.0003a.24088.24088,0,0,0,.2398.2398H2.16a.24088.24088,0,0,0,.2398-.2398V8.6389A.24105.24105,0,0,0,2.16,8.399"/><path class="e" d="M15.1206,8.399h-.9607a.24105.24105,0,0,0-.2398.2399v6.0003a.24088.24088,0,0,0,.2398.2398h.9607a.24088.24088,0,0,0,.2398-.2398V8.6389a.24105.24105,0,0,0-.2398-.2399"/><path class="f" d="M1.6104,3.0484a.23936.23936,0,1,1-.3396-.3374L2.4707,1.5106a.23912.23912,0,0,1,.4087.1786l.0003.9513.9607-.0003a.23893.23893,0,0,1,.1695.4073L2.8103,4.248a.23932.23932,0,0,1-.3396-.3373l.7923-.7926-.6222.0003a.23919.23919,0,0,1-.239-.239l-.0003-.6227ZM1.8856.7138.2344,2.3658A.8031.8031,0,0,0,.2336,3.4979L2.2623,5.5261a.80346.80346,0,0,0,1.1328,0L5.0593,3.8628a.80317.80317,0,0,0-.0125-1.1197L3.0061.7018a.80477.80477,0,0,0-1.1205.012Z"/></g></svg>