<svg xmlns="http://www.w3.org/2000/svg" xmlns:xlink="http://www.w3.org/1999/xlink" viewBox="0 0 15.3598 15.3598"><defs><style>.a{fill:none;}.b{clip-path:url(#a);}.c{fill:#727275;}.c,.d{fill-rule:evenodd;}.d{fill:#0075c3;}</style><clipPath id="a"><rect class="a" width="15.3598" height="15.3601"/></clipPath></defs><title>haukehirsch-01</title><g class="b"><path class="c" d="M7.4407,6.2396a.2401.2401,0,0,1,.4802,0V9.1202a.2401.2401,0,0,1-.4802,0Zm-2.8812,0a.2401.2401,0,0,1,.4802,0V9.1202a.2401.2401,0,0,1-.4802,0Zm5.7612,0a.2401.2401,0,1,1,.4802,0V9.1202a.2401.2401,0,0,1-.4802,0ZM13.4413,5.04H1.9179v5.2795H13.4413Z"/><path class="d" d="M1.2013,4.5601H.2407a.24088.24088,0,0,0-.2398.2398v5.76a.24088.24088,0,0,0,.2398.2398h.9606a.24088.24088,0,0,0,.2398-.2398v-5.76a.24088.24088,0,0,0-.2398-.2398m13.9196,0h-.9607a.24105.24105,0,0,0-.2398.2398v5.76a.24105.24105,0,0,0,.2398.2398h.9607a.24105.24105,0,0,0,.2398-.2398v-5.76a.24105.24105,0,0,0-.2398-.2398Z"/></g></svg>