<svg xmlns="http://www.w3.org/2000/svg" xmlns:xlink="http://www.w3.org/1999/xlink" viewBox="0 0 15.3598 15.3598"><defs><style>.a{fill:none;}.b{clip-path:url(#a);}.c,.d{fill:#727275;}.d,.e,.f{fill-rule:evenodd;}.e,.g{fill:#0075c3;}.f{fill:#c0392b;}</style><clipPath id="a"><rect class="a" width="15.3598" height="15.3601"/></clipPath></defs><title>haukehirsch-7</title><g class="b"><path class="c" d="M12.4792,8.7287v1.5914h-.72V8.7287a2.16787,2.16787,0,0,0,.72,0m-1.44-6.8094h1.08a.36009.36009,0,0,1,.36.36V4.4699a2.175,2.175,0,0,0-.72,0V2.6393h-.72Zm-7.7986,0h1.08v.72h-.72v7.6808h-.72V2.2793A.36016.36016,0,0,1,3.2406,1.9193Z"/><path class="d" d="M4.7985,10.8H1.9199v3.3596H4.7985a.96164.96164,0,0,0,.9598-.9598v-1.44A.96164.96164,0,0,0,4.7985,10.8m8.6403,0H10.5582a.96158.96158,0,0,0-.9598.9598v1.44a.96158.96158,0,0,0,.9598.9598h2.8806Z"/><path class="e" d="M1.1999,10.3201H.2392a.24105.24105,0,0,0-.2398.2398V14.4a.24105.24105,0,0,0,.2398.2398h.9607A.24105.24105,0,0,0,1.4397,14.4V10.5599a.24105.24105,0,0,0-.2398-.2398m13.9195,0h-.9606a.24088.24088,0,0,0-.2398.2398V14.4a.24088.24088,0,0,0,.2398.2398h.9606a.24088.24088,0,0,0,.2398-.2398V10.5599a.24088.24088,0,0,0-.2398-.2398Z"/><path class="f" d="M10.3195.72H5.0403A.239.239,0,0,0,4.881.7804L4.8713.7906a.23939.23939,0,0,0-.0705.1692V3.3605a.23975.23975,0,0,0,.0705.1692.23567.23567,0,0,0,.169.0706h5.2792a.23946.23946,0,0,0,.1593-.0604l.0097-.0102a.23984.23984,0,0,0,.0706-.1692V.9598a.23948.23948,0,0,0-.0706-.1692A.23493.23493,0,0,0,10.3195.72"/><polygon class="d" points="1.799 4.68 4.679 4.68 3.242 6.599 1.799 4.68"/><path class="c" d="M3.24207,6.95941a.361.361,0,0,1-.2876-.14355L1.5116,4.89691a.36021.36021,0,0,1,.28759-.57715H4.67908a.3604.3604,0,0,1,.28808.57618l-1.437,1.91894a.35914.35914,0,0,1-.2876.14453ZM2.52039,5.04047l.72119.959.71826-.959Z"/><polygon class="d" points="1.799 8.519 4.679 8.519 3.242 6.6 1.799 8.519"/><path class="c" d="M4.67908,8.87933H1.79919a.36021.36021,0,0,1-.28759-.57714L2.95447,6.38324a.361.361,0,0,1,.2876-.14355h.00048a.35914.35914,0,0,1,.2876.14453l1.437,1.91894a.36039.36039,0,0,1-.28808.57617Zm-2.15869-.7207H3.95984l-.71826-.959Z"/><path class="c" d="M12.12,9.11957a2.52,2.52,0,1,1,2.519-2.52051A2.52305,2.52305,0,0,1,12.12,9.11957Zm0-4.31934a1.79932,1.79932,0,1,0,1.79931,1.79883A1.8013,1.8013,0,0,0,12.12,4.80023Z"/><path class="c" d="M10.9198,8.27972a.224.224,0,0,1-.05029-.00586.23925.23925,0,0,1-.18409-.28417l.71973-3.36036a.23985.23985,0,0,1,.46924.09961l-.71973,3.36035A.24064.24064,0,0,1,10.9198,8.27972Z"/><path class="c" d="M13.3197,8.27972a.24064.24064,0,0,1-.23486-.19043l-.71973-3.36035a.23985.23985,0,0,1,.46924-.09961l.71973,3.36036a.23925.23925,0,0,1-.18408.28417A.224.224,0,0,1,13.3197,8.27972Z"/><rect class="g" x="6.2408" y="11.52" width="2.8783" height="1.9196"/></g></svg>