<svg xmlns="http://www.w3.org/2000/svg" xmlns:xlink="http://www.w3.org/1999/xlink" viewBox="0 0 15.3598 15.3598"><defs><style>.a{fill:none;}.b{clip-path:url(#a);}.c,.d{fill:#727275;}.d,.e{fill-rule:evenodd;}.e{fill:#0075c3;}.f{fill:#c0392b;}</style><clipPath id="a"><rect class="a" width="15.3598" height="15.3601"/></clipPath></defs><title>haukehirsch-04</title><g class="b"><path class="c" d="M11.7592,5.5412V5.0397l.72-.0003v.5015a3.06807,3.06807,0,0,0-.3594-.0213,3.02428,3.02428,0,0,0-.3606.0216m-.72,7.1793h.72V11.4967a3.02428,3.02428,0,0,0,.3606.0216,3.06807,3.06807,0,0,0,.3594-.0213v1.5835a.36009.36009,0,0,1-.36.36h-1.08ZM3.6006,11.2788v1.4417h.72v.72h-1.08a.36016.36016,0,0,1-.36-.36V11.2788Zm0-6.2391v.72h-.72V5.0394Z"/><path class="d" d="M4.7985,4.5598,1.9202,4.5595V1.1999l2.8783.0003a.96164.96164,0,0,1,.9598.9598V3.6a.96274.96274,0,0,1-.9598.9598"/><path class="d" d="M13.4402,4.5595l-2.882.0003A.96235.96235,0,0,1,9.5984,3.6V2.16a.96183.96183,0,0,1,.9598-.9598l2.882-.0003Z"/><path class="e" d="M14.1588,5.0397h.9606a.24088.24088,0,0,0,.2398-.2398V.9598A.24088.24088,0,0,0,15.1194.72h-.9606a.24088.24088,0,0,0-.2398.2398V4.7999a.24088.24088,0,0,0,.2398.2398m-13.9196,0h.9607a.24105.24105,0,0,0,.2398-.2398V.9598A.24105.24105,0,0,0,1.1999.72H.2392A.24105.24105,0,0,0-.0006.9598V4.7999a.24105.24105,0,0,0,.2398.2398Z"/><path class="e" d="M5.0403,14.6398h5.2792a.23885.23885,0,0,0,.169-.0694.24467.24467,0,0,0,.0706-.1704V11.9993a.23984.23984,0,0,0-.0706-.1692l-.0097-.0102a.23946.23946,0,0,0-.1593-.0604H5.0403a.23887.23887,0,0,0-.169.0695.24434.24434,0,0,0-.0705.1703V14.4a.23957.23957,0,0,0,.0705.1692l.0097.0102a.239.239,0,0,0,.1593.0604"/><path class="c" d="M3.24188,8.87933a.361.361,0,0,1-.2876-.14355L1.51141,6.81683a.36021.36021,0,0,1,.2876-.57714H4.67889a.36039.36039,0,0,1,.28809.57617L3.53,8.7348a.35914.35914,0,0,1-.2876.14453ZM2.5202,6.96039l.72119.959.71827-.959Z"/><path class="c" d="M4.67889,10.79926H1.799a.35969.35969,0,0,1-.2876-.57618L2.95428,8.30316a.35916.35916,0,0,1,.2876-.14453h.00049a.35914.35914,0,0,1,.2876.14453l1.437,1.91992a.3604.3604,0,0,1-.28809.57618Zm-2.15918-.72071h1.44l-.71827-.96Z"/><path class="c" d="M12.11981,11.03851a2.51953,2.51953,0,1,1,2.519-2.51953A2.52243,2.52243,0,0,1,12.11981,11.03851Zm0-4.31836A1.79883,1.79883,0,1,0,13.91913,8.519,1.80088,1.80088,0,0,0,12.11981,6.72015Z"/><path class="c" d="M10.9201,10.19965a.22453.22453,0,0,1-.05029-.00586.24.24,0,0,1-.18457-.28418L11.405,6.54926a.24008.24008,0,0,1,.46972.0996L11.155,10.00922A.24067.24067,0,0,1,10.9201,10.19965Z"/><path class="c" d="M13.31952,10.19965a.24065.24065,0,0,1-.23486-.19043l-.71973-3.36036a.24009.24009,0,0,1,.46973-.0996l.71972,3.36035a.24.24,0,0,1-.18457.28418A.22453.22453,0,0,1,13.31952,10.19965Z"/><rect class="f" x="6.2408" y="1.9202" width="2.8783" height="1.9196"/></g></svg>