<?xml version="1.0" encoding="UTF-8"?><svg id="g" xmlns="http://www.w3.org/2000/svg" width="16" height="16" viewBox="0 0 16 16"><path d="M5.389,13.886c-.209,.074-.433,.114-.667,.114-1.105,0-2-.895-2-2s.895-2,2-2,2,.895,2,2" fill="none" stroke="#b04536" stroke-linecap="round" stroke-linejoin="round" stroke-width="1.5"/><line x1="6.722" y1="12" x2="3.389" y2="12" fill="none" stroke="#b04536" stroke-linecap="round" stroke-linejoin="round" stroke-width="1.5"/><line x1="11.472" y1="10.25" x2="7.972" y2="13.75" fill="none" stroke="#b04536" stroke-linecap="round" stroke-linejoin="round" stroke-width="1.5"/><line x1="7.972" y1="10.25" x2="11.472" y2="13.75" fill="none" stroke="#b04536" stroke-linecap="round" stroke-linejoin="round" stroke-width="1.5"/><path d="M15,14h0c-.552,0-1-.448-1-1v-4" fill="none" stroke="#b04536" stroke-linecap="round" stroke-linejoin="round" stroke-width="1.5"/><line x1="15" y1="11" x2="13" y2="11" fill="none" stroke="#b04536" stroke-linecap="round" stroke-linejoin="round" stroke-width="1.5"/><line x1="6.983" y1="2" x2="1" y2="7.983" fill="none" stroke="#b04536" stroke-linecap="round" stroke-linejoin="round" stroke-width="2"/><polyline points="4 2.017 7 2.017 7 5.017" fill="none" stroke="#b04536" stroke-linecap="round" stroke-linejoin="round" stroke-width="2"/></svg>