<svg xmlns="http://www.w3.org/2000/svg" xmlns:xlink="http://www.w3.org/1999/xlink" viewBox="0 0 15.3598 15.3598"><defs><style>.a{fill:none;}.b{clip-path:url(#a);}.c,.d{fill:#727275;}.c,.e,.f,.g{fill-rule:evenodd;}.e{fill:#0075c3;}.f{fill:#c0392b;}.g{fill:#eb992f;}</style><clipPath id="a"><rect class="a" width="15.3598" height="15.3601"/></clipPath></defs><title>haukehirsch-09</title><g class="b"><path class="c" d="M11.9993,5.7591h1.44V9.5995h-1.44Zm-10.08,0h1.44V9.5995h-1.44Z"/><path class="d" d="M11.51953,13.43988H3.83936a.72091.72091,0,0,1-.71973-.7207V2.6391a.72091.72091,0,0,1,.71973-.7207h7.68017a.72092.72092,0,0,1,.71973.7207V12.71918A.72092.72092,0,0,1,11.51953,13.43988ZM3.83936,2.39886a.24038.24038,0,0,0-.24024.24024V12.71918a.24037.24037,0,0,0,.24024.24023h7.68017a.24037.24037,0,0,0,.24024-.24023V2.6391a.24038.24038,0,0,0-.24024-.24024Z"/><path class="e" d="M.3594,5.2792H1.08a.36074.36074,0,0,1,.3597.3597V9.7197a.36067.36067,0,0,1-.3597.3597H.3594a.36074.36074,0,0,1-.3597-.3597V5.6389a.3608.3608,0,0,1,.3597-.3597"/><path class="e" d="M14.2792,5.2792h.7206a.36074.36074,0,0,1,.3597.3597V9.7197a.36067.36067,0,0,1-.3597.3597h-.7206a.36074.36074,0,0,1-.3597-.3597V5.6389a.3608.3608,0,0,1,.3597-.3597"/><path class="f" d="M8.335,3.4169A4.79338,4.79338,0,0,0,7.1768,6.9412,1.624,1.624,0,0,1,6.5656,5.906a.27251.27251,0,0,0-.1922-.2211.263.263,0,0,0-.2778.0793A5.4344,5.4344,0,0,0,4.5601,9.0127a3.08692,3.08692,0,0,0,1.2926,2.4398,1.903,1.903,0,0,1-.2478-.9244A3.35526,3.35526,0,0,1,7.6107,7.7437a.48.48,0,0,1,.7206.4331c-.0442,1.1713,1.22,1.2209,1.22,2.3513a1.95416,1.95416,0,0,1-.2406.9644,2.79606,2.79606,0,0,0,1.4887-2.4798c0-1.5959-1.8671-2.8802-2.0114-5.4017a.27388.27388,0,0,0-.1678-.2423.26145.26145,0,0,0-.2852.0482"/><path class="g" d="M7.8517,8.1587c-.4003.2324-1.7668,1.006-1.7668,2.3694A1.50541,1.50541,0,0,0,7.685,12.0024a1.4591,1.4591,0,0,0,1.3864-1.4743c0-.8424-1.2733-.9479-1.2197-2.3694"/></g></svg>