<svg xmlns="http://www.w3.org/2000/svg" xmlns:xlink="http://www.w3.org/1999/xlink" viewBox="0 0 15.3598 15.3598"><defs><style>.a{fill:none;}.b{clip-path:url(#a);}.c,.d{fill:#727275;}.d,.e,.f{fill-rule:evenodd;}.e{fill:#0075c3;}.f{fill:#c0392b;}</style><clipPath id="a"><rect class="a" width="15.3598" height="15.3601"/></clipPath></defs><title>haukehirsch-08</title><g class="b"><path class="c" d="M11.99994,6.95941a.24.24,0,0,1-.186-.3916,1.41038,1.41038,0,0,0,.20069-.29492c-.04639-.01758-.11768-.03711-.17432-.05274a1.18772,1.18772,0,0,1-1.041-1.26855,3.04352,3.04352,0,0,1,1.51367-2.3125H11.519a.24024.24024,0,0,1,0-.48047h1.68067a.24043.24043,0,0,1,.09961.459c-.02051.00879-2.02051.93848-2.02051,2.334,0,.61914.334.71.687.80566.21094.05762.44971.12207.52393.35254.07861.24414-.09961.50977-.30372.76074A.23886.23886,0,0,1,11.99994,6.95941Z"/><path class="d" d="M1.9522,3.331l.6579-.6585-.142-.142a.46542.46542,0,0,0-.6582.6582Zm1.8683.5513-.6585.6585.4678.468L4.2885,4.35Z"/><path class="d" d="M5.0301,4.2874,3.5677,5.7501a.13653.13653,0,0,0,0,.1919l.1916.1916L5.4133,4.479,5.222,4.2877a.13534.13534,0,0,0-.0958-.0397.12961.12961,0,0,0-.0961.0394"/><path class="d" d="M12.9597,8.6394H11.418a.23922.23922,0,0,1-.1817-.0833L6.9534,4.2744a.4673.4673,0,0,0-.6571-.0006L3.543,7.0274a.46895.46895,0,0,0,.0108.6465l.5567.5556,2.4367,2.4367a3.69743,3.69743,0,0,0,1.2265.8093,3.88434,3.88434,0,0,0,1.4709.2846.239.239,0,0,1,.0017.4779A4.36609,4.36609,0,0,1,7.594,11.92a4.17833,4.17833,0,0,1-1.3864-.9142L3.8412,8.6394H2.3998v5.5199H12.9597Z"/><path class="e" d="M1.6798,8.1592H.7191a.24105.24105,0,0,0-.2398.2398v6.0004a.24088.24088,0,0,0,.2398.2398h.9607a.24088.24088,0,0,0,.2398-.2398V8.399a.24105.24105,0,0,0-.2398-.2398"/><path class="e" d="M14.6404,8.1592h-.9607a.24105.24105,0,0,0-.2398.2398v6.0004a.24088.24088,0,0,0,.2398.2398h.9607a.24088.24088,0,0,0,.2398-.2398V8.399a.24105.24105,0,0,0-.2398-.2398"/><path class="f" d="M1.1197,5.9046,4.9439,2.0798a.37822.37822,0,0,0,.0009-.5312.37989.37989,0,0,0-.2665-.1092.37474.37474,0,0,0-.2653.1089L.5771,5.3838a.3787.3787,0,0,0,.0111.5191l.0116.0121a.37821.37821,0,0,0,.5199-.0104"/></g></svg>