<svg xmlns="http://www.w3.org/2000/svg" xmlns:xlink="http://www.w3.org/1999/xlink" viewBox="0 0 15.3598 15.3598"><defs><style>.a{fill:none;}.b{clip-path:url(#a);}.c,.e{fill:#727275;}.c,.f{fill-rule:evenodd;}.d,.f{fill:#0075c3;}</style><clipPath id="a"><rect class="a" width="15.3598" height="15.3601"/></clipPath></defs><title>haukehirsch-03</title><g class="b"><path class="c" d="M7.6808,5.5199a3.3601,3.3601,0,1,1-2.3758.9842l.0156-.0142a3.34969,3.34969,0,0,1,2.3602-.97m0-1.44A4.7999,4.7999,0,1,1,2.8809,8.8798,4.79985,4.79985,0,0,1,7.6808,4.0799Z"/><path class="c" d="M11.1424,6.7198H13.441v4.32H11.1424a4.08208,4.08208,0,0,0,0-4.32m-9.2222,0H4.2191a4.08264,4.08264,0,0,0,0,4.32H1.9202Z"/><rect class="d" x="0.2409" y="6.48" width="0.9599" height="4.7999"/><path class="d" d="M1.20081,11.52h-.96a.24.24,0,0,1-.23974-.24024V6.47992a.24.24,0,0,1,.23974-.24023h.96a.24.24,0,0,1,.23974.24023v4.7998A.24.24,0,0,1,1.20081,11.52Zm-.72022-.48047H.96106V6.72015H.48059Z"/><rect class="d" x="14.1605" y="6.48" width="0.9604" height="4.7999"/><path class="d" d="M15.12073,11.52h-.96045a.24.24,0,0,1-.23975-.24024V6.47992a.24.24,0,0,1,.23975-.24023h.96045a.24.24,0,0,1,.23974.24023v4.7998A.24.24,0,0,1,15.12073,11.52ZM14.4,11.03949h.481V6.72015H14.4Z"/><path class="e" d="M13.20081,14.15961a.24.24,0,0,1-.23975-.24024V12.72015H11.76038a.24023.24023,0,0,1,0-.48046h1.44043a.24.24,0,0,1,.23974.24023v1.43945A.24.24,0,0,1,13.20081,14.15961Z"/><path class="e" d="M7.68079,15.3598a7.16539,7.16539,0,0,1-5.64551-2.73047.24013.24013,0,1,1,.376-.29882,6.72069,6.72069,0,0,0,10.42042.14453.24019.24019,0,0,1,.36816.30859A7.18884,7.18884,0,0,1,7.68079,15.3598Z"/><path class="e" d="M3.59924,5.52H2.15881a.24.24,0,0,1-.23974-.24024V3.83929a.23975.23975,0,1,1,.47949,0v1.2002H3.59924a.24024.24024,0,0,1,0,.48047Z"/><path class="e" d="M11.6595,3.5997a7.24124,7.24124,0,0,1,1.6642,1.5318.23879.23879,0,0,1-.3748.296,6.74773,6.74773,0,0,0-2.2388-1.8278ZM2.5277,5.2832a.23949.23949,0,0,1-.3674-.3073A7.247,7.247,0,0,1,3.6989,3.5997h.9479A6.75393,6.75393,0,0,0,2.5277,5.2832Z"/><path class="f" d="M8.9158,8.8798,6.961,7.636v2.4876ZM6.8678,7.0101,9.4893,8.6783a.23893.23893,0,0,1,0,.403L6.8494,10.7612a.239.239,0,0,1-.3674-.2016L6.4809,7.2a.24.24,0,0,1,.3869-.1899Zm2.8491-.1664a2.88051,2.88051,0,0,0-4.0598-.0136l-.0125.0136a2.87975,2.87975,0,1,0,4.0723,0Z"/><path class="e" d="M6.0011,2.64008H4.08069a.24028.24028,0,0,1-.21924-.33789L4.8219.142a.23971.23971,0,0,1,.21924-.14258h0A.23973.23973,0,0,1,5.26038.142l.96,2.16016a.24028.24028,0,0,1-.21924.33789ZM4.44983,2.15961H5.632L5.04114.83051Z"/><path class="e" d="M6.72083,3.6a.24.24,0,0,1-.23975-.24024V1.19965a.23975.23975,0,1,1,.47949,0V3.3598A.24.24,0,0,1,6.72083,3.6Z"/><path class="e" d="M7.32141,2.64008H6.72083a.24.24,0,0,1-.23975-.24024V1.19965A.24.24,0,0,1,6.72083.95941h.60058a.84034.84034,0,0,1,0,1.68067Zm-.36084-.48047h.36084a.35987.35987,0,0,0,0-.71973H6.96057Z"/><path class="e" d="M9.361,1.91937h-.48a.24024.24024,0,0,1,0-.48047h.48a.24024.24024,0,0,1,0,.48047Z"/><path class="e" d="M11.04065,2.64008a.24136.24136,0,0,1-.21484-.13282l-.71973-1.44043A.2402.2402,0,0,1,10.53577.852l.50488,1.01074L11.54553.852a.2402.2402,0,0,1,.42969.21484l-.71973,1.44043A.24136.24136,0,0,1,11.04065,2.64008Z"/></g></svg>