<svg xmlns="http://www.w3.org/2000/svg" xmlns:xlink="http://www.w3.org/1999/xlink" viewBox="0 0 15.3598 15.3598"><defs><style>.a{fill:none;}.b{clip-path:url(#a);}.c{fill:#727275;}.c,.d,.e{fill-rule:evenodd;}.d{fill:#0075c3;}.e{fill:#c0392b;}</style><clipPath id="a"><rect class="a" width="15.3598" height="15.3601"/></clipPath></defs><title>haukehirsch-4</title><g class="b"><path class="c" d="M2.6104,1.9531l-.142-.1421a.46542.46542,0,0,0-.6582.6582l.1423.1423ZM3.63,4.2891l.6585-.6585-.4677-.4677-.6585.6585Z"/><path class="c" d="M3.7599,5.4144,5.4136,3.7596l-.1913-.1914a.13583.13583,0,0,0-.0958-.0396.12885.12885,0,0,0-.0961.0394L3.568,5.0306a.13653.13653,0,0,0,0,.1919Z"/><path class="c" d="M2.4001,7.92v5.5199H12.96V7.92H11.4182a.23954.23954,0,0,1-.1817-.0833L6.9537,3.5549a.46742.46742,0,0,0-.6571-.0005L3.5433,6.3079a.46907.46907,0,0,0,.0108.6466l.5567.5556L6.5475,9.9468a3.699,3.699,0,0,0,1.2265.8093,3.88627,3.88627,0,0,0,1.4709.2846.239.239,0,0,1,.0017.4779,4.36813,4.36813,0,0,1-1.6523-.3181,4.178,4.178,0,0,1-1.3864-.9141L3.8415,7.92Z"/><path class="d" d="M14.6407,7.4398H13.68a.24105.24105,0,0,0-.2398.2398V13.68a.24105.24105,0,0,0,.2398.2398h.9607a.24105.24105,0,0,0,.2398-.2398V7.6796a.24105.24105,0,0,0-.2398-.2398m-12.9606,0H.7194a.24105.24105,0,0,0-.2398.2398V13.68a.24105.24105,0,0,0,.2398.2398h.9607a.24105.24105,0,0,0,.2398-.2398V7.6796a.24105.24105,0,0,0-.2398-.2398Z"/><path class="e" d="M1.12,5.1851,4.9442,1.3603A.37809.37809,0,0,0,4.945.8291.37938.37938,0,0,0,4.6786.72a.37489.37489,0,0,0-.2653.1088L.5774,4.6644a.37858.37858,0,0,0,.0111.519l.0116.0122A.37808.37808,0,0,0,1.12,5.1851"/></g></svg>