<svg xmlns="http://www.w3.org/2000/svg" xmlns:xlink="http://www.w3.org/1999/xlink" viewBox="0 0 15.3598 15.3598"><defs><style>.a{fill:none;}.b{clip-path:url(#a);}.c,.g{fill:#0075c3;}.c,.e,.f{fill-rule:evenodd;}.d{fill:#727275;}.e{fill:#c0392b;}.f{fill:#eb992f;}</style><clipPath id="a"><rect class="a" width="15.3598" height="15.3601"/></clipPath></defs><title>haukehirsch-6</title><g class="b"><path class="c" d="M1.9196.72H12.2114a4.00172,4.00172,0,0,0-.2101.6205.69058.69058,0,0,0-.8266.1451,6.45274,6.45274,0,0,0-.5431.6744H1.9196Z"/><path class="d" d="M11.7612,6.825V9.1202a.48438.48438,0,0,0,.4799.4799l1.1985-.0003v1.44l-1.1985.0003a1.92444,1.92444,0,0,1-1.9199-1.9199V5.6939a2.91972,2.91972,0,0,0,1.44,1.1311M9.3606,6.0001v4.5601a1.91845,1.91845,0,0,1-3.2769,1.3561l-.0456-.0499a1.91527,1.91527,0,0,1-.5182-1.3062V4.5598a.47921.47921,0,0,0-.1423-.3382A.46656.46656,0,0,0,5.04,4.0799a.47717.47717,0,0,0-.4808.4799V9.1202a1.922,1.922,0,0,1-1.9199,1.9199H1.9196v-1.44h.7197a.48193.48193,0,0,0,.4799-.4799V4.5598a1.91434,1.91434,0,0,1,.563-1.3541l.0028-.0028A1.92117,1.92117,0,0,1,6.9599,4.5598v6.0004a.47647.47647,0,0,0,.1168.3138l.0252.0241a.48036.48036,0,0,0,.8187-.3379V4.5598a1.91871,1.91871,0,0,1,2.3805-1.8635,3.45162,3.45162,0,0,0-.4292,1.3844l-.0306-.0008a.48279.48279,0,0,0-.4807.4799Z"/><path class="e" d="M13.2508.0524a3.52417,3.52417,0,0,0-.8912,2.6397,1.21115,1.21115,0,0,1-.4702-.7756.20984.20984,0,0,0-.3615-.106,4.02849,4.02849,0,0,0-1.1814,2.4327,2.25942,2.25942,0,0,0,.7937,1.6679,1.48358,1.48358,0,0,1-.1004-.5327,2.62931,2.62931,0,0,1,1.6027-2.1917.47991.47991,0,0,1,.7161.436c-.0309.7988.9385.8438.9385,1.7557a1.599,1.599,0,0,1-.1168.6126,2.05188,2.05188,0,0,0,.9663-1.7478c0-1.1951-1.4363-2.1569-1.5474-4.0454a.20534.20534,0,0,0-.129-.1814.20512.20512,0,0,0-.2194.036"/><path class="f" d="M12.8789,3.6042c-.3078.1744-1.3592.7535-1.3592,1.7742a1.14628,1.14628,0,0,0,1.2308,1.1041,1.10586,1.10586,0,0,0,1.0667-1.1041c0-.6307-.9794-.7095-.9383-1.7742"/><rect class="g" x="1.9196" y="12.96" width="11.2799" height="1.44"/><path class="c" d="M.3594,8.8804H1.08a.36067.36067,0,0,1,.3597.3597v2.1603a.36074.36074,0,0,1-.3597.3597H.3594a.3608.3608,0,0,1-.3597-.3597V9.2401a.36074.36074,0,0,1,.3597-.3597"/><path class="c" d="M14.2792,8.8804h.7206a.36067.36067,0,0,1,.3597.3597v2.1603a.36074.36074,0,0,1-.3597.3597h-.7206a.3608.3608,0,0,1-.3597-.3597V9.2401a.36074.36074,0,0,1,.3597-.3597"/></g></svg>