<svg xmlns="http://www.w3.org/2000/svg" xmlns:xlink="http://www.w3.org/1999/xlink" viewBox="0 0 15.3598 15.3598"><defs><style>.a{fill:none;}.b{clip-path:url(#a);}.c,.e{fill:#0075c3;}.c{fill-rule:evenodd;}.d{fill:#727275;}.f{fill:#c0392b;}</style><clipPath id="a"><rect class="a" width="15.3598" height="15.3601"/></clipPath></defs><title>haukehirsch-5</title><g class="b"><path class="c" d="M12.3038.72h.5184a.90519.90519,0,0,0-.1029.4598,1.24442,1.24442,0,0,0,.3439.803c.0428.0561.0867.1143.1292.1772h-.5811l-.0068-.0082a1.45634,1.45634,0,0,1-.3648-.972A1.4719,1.4719,0,0,1,12.3038.72m-1.44,0h.5184a.90519.90519,0,0,0-.1029.4598,1.24442,1.24442,0,0,0,.3439.803c.0428.0561.0867.1143.1292.1772h-.5811l-.0068-.0082a1.45634,1.45634,0,0,1-.3648-.972A1.4719,1.4719,0,0,1,10.8638.72ZM1.9196.72h8.4473a2.06447,2.06447,0,0,0-.0474.4598,1.75926,1.75926,0,0,0,.2668.9802H1.9196Z"/><path class="d" d="M11.3936,3.435a1.92113,1.92113,0,0,1,.252.4711l-.0547.0695-.0216.0261a.23922.23922,0,0,1-.1516.0771.24584.24584,0,0,1-.1667-.0434l-.0213-.0173a.23946.23946,0,0,1-.0771-.1517.24411.24411,0,0,1,.0434-.1666l.0201-.0258a2.30746,2.30746,0,0,0,.1775-.239M9.3606,6.0001v4.5601a1.91845,1.91845,0,0,1-3.2769,1.3561l-.0456-.0499a1.91527,1.91527,0,0,1-.5182-1.3062V4.5598a.47921.47921,0,0,0-.1423-.3382A.46656.46656,0,0,0,5.04,4.0799a.47717.47717,0,0,0-.4808.4799V9.1202a1.922,1.922,0,0,1-1.9199,1.9199H1.9196v-1.44h.7197a.48193.48193,0,0,0,.4799-.4799V4.5598a1.91434,1.91434,0,0,1,.563-1.3541l.0028-.0028A1.92117,1.92117,0,0,1,6.9599,4.5598v6.0004a.47647.47647,0,0,0,.1168.3138l.0252.0241a.48036.48036,0,0,0,.8187-.3379V4.5598a1.916,1.916,0,0,1,3.109-1.5032.76435.76435,0,0,1-.1871.3183l-.013.0159a.71973.71973,0,0,0,.0918.9935l.0207.0176a.72068.72068,0,0,0,.8164.0567c.0017.0335.0028.0672.0028.1012V9.1202a.48438.48438,0,0,0,.4799.4799l1.1985-.0003v1.44l-1.1985.0003a1.92444,1.92444,0,0,1-1.9199-1.9199V4.5598a.47975.47975,0,0,0-.1423-.3382.4713.4713,0,0,0-.3376-.1417.48279.48279,0,0,0-.4807.4799Z"/><rect class="e" x="1.9196" y="12.96" width="11.2799" height="1.44"/><path class="c" d="M.3594,8.8804H1.08a.36067.36067,0,0,1,.3597.3597v2.1603a.36074.36074,0,0,1-.3597.3597H.3594a.3608.3608,0,0,1-.3597-.3597V9.2401a.36074.36074,0,0,1,.3597-.3597"/><path class="c" d="M14.2792,8.8804h.7206a.36067.36067,0,0,1,.3597.3597v2.1603a.36074.36074,0,0,1-.3597.3597h-.7206a.3608.3608,0,0,1-.3597-.3597V9.2401a.36074.36074,0,0,1,.3597-.3597"/><path class="f" d="M11.39233,4.07172a.2373.2373,0,0,1-.188-.38184l.01025-.01269a1.03693,1.03693,0,0,0,.30518-.71192.23989.23989,0,0,1,.23974-.23535h.0044a.2401.2401,0,0,1,.23535.24512A1.49007,1.49007,0,0,1,11.58813,3.978.25256.25256,0,0,1,11.39233,4.07172Z"/><path class="f" d="M11.75952,3.21039a.24.24,0,0,1-.23974-.24024,1.03787,1.03787,0,0,0-.30762-.74511,1.49685,1.49685,0,0,1-.4126-1.04493.23975.23975,0,1,1,.47949,0,1.03894,1.03894,0,0,0,.30713.74415,1.49545,1.49545,0,0,1,.41309,1.04589A.24.24,0,0,1,11.75952,3.21039Z"/><path class="f" d="M11.03931,1.42035a.24.24,0,0,1-.23975-.24024A1.49826,1.49826,0,0,1,11.21313.13324a.26465.26465,0,0,1,.3545-.05859A.2167.2167,0,0,1,11.6228.3891a1.11227,1.11227,0,0,0-.34375.791A.24.24,0,0,1,11.03931,1.42035Z"/><path class="f" d="M12.83228,4.07172a.2373.2373,0,0,1-.188-.38184l.01025-.01269a1.03693,1.03693,0,0,0,.30518-.71192.23989.23989,0,0,1,.23974-.23535h.0044a.2401.2401,0,0,1,.23535.24512A1.49011,1.49011,0,0,1,13.02808,3.978.25258.25258,0,0,1,12.83228,4.07172Z"/><path class="f" d="M13.19946,3.21039a.24.24,0,0,1-.23974-.24024,1.03956,1.03956,0,0,0-.30713-.74511A1.49685,1.49685,0,0,1,12.24,1.18011a.23975.23975,0,1,1,.47949,0,1.03894,1.03894,0,0,0,.30713.74415,1.4975,1.4975,0,0,1,.4126,1.04589A.24.24,0,0,1,13.19946,3.21039Z"/><path class="f" d="M12.47974,1.42035A.24.24,0,0,1,12.24,1.18011,1.50092,1.50092,0,0,1,12.65356.13226a.26826.26826,0,0,1,.3545-.05859.2182.2182,0,0,1,.05468.31543,1.11033,1.11033,0,0,0-.34326.791A.24.24,0,0,1,12.47974,1.42035Z"/><path class="f" d="M14.27222,4.07172a.2373.2373,0,0,1-.188-.38184l.01025-.01269a1.03689,1.03689,0,0,0,.30518-.71192.23989.23989,0,0,1,.23974-.23535h.0044a.2401.2401,0,0,1,.23535.24512A1.49011,1.49011,0,0,1,14.468,3.978.25258.25258,0,0,1,14.27222,4.07172Z"/><path class="f" d="M14.6394,3.21039a.24.24,0,0,1-.23974-.24024,1.03952,1.03952,0,0,0-.30713-.74511,1.49685,1.49685,0,0,1-.4126-1.04493.23975.23975,0,1,1,.47949,0,1.039,1.039,0,0,0,.30713.74415,1.4975,1.4975,0,0,1,.4126,1.04589A.24.24,0,0,1,14.6394,3.21039Z"/><path class="f" d="M13.91968,1.42035a.24.24,0,0,1-.23975-.24024A1.50088,1.50088,0,0,1,14.09351.13226.2681.2681,0,0,1,14.448.07367a.21819.21819,0,0,1,.05469.31543,1.1103,1.1103,0,0,0-.34327.791A.24.24,0,0,1,13.91968,1.42035Z"/></g></svg>