<svg xmlns="http://www.w3.org/2000/svg" xmlns:xlink="http://www.w3.org/1999/xlink" viewBox="0 0 15.3598 15.3598"><defs><style>.a{fill:none;}.b{clip-path:url(#a);}.c{fill:#727275;}.c,.d,.e{fill-rule:evenodd;}.d{fill:#0075c3;}.e{fill:#c0392b;}</style><clipPath id="a"><rect class="a" width="15.3598" height="15.3601"/></clipPath></defs><title>haukehirsch-3</title><g class="b"><path class="c" d="M1.9191,12.7202v-4.32H.4796v4.32Zm11.5217-4.32v4.32h1.4394v-4.32Z"/><path class="c" d="M8.4002,2.1597v-.479a.72085.72085,0,0,0-1.4417,0v.479ZM6.9585,5.2733H8.4002V4.0799H6.9585Z"/><path class="d" d="M3.8395,7.92v5.2807H2.6393a.241.241,0,0,1-.2401-.2401V8.1598A.24105.24105,0,0,1,2.6391,7.92Z"/><path class="d" d="M11.5203,7.92v5.2807h1.1993a.24019.24019,0,0,0,.2404-.2404V8.3999a.48.48,0,0,0-.4799-.4799Z"/><path class="e" d="M3.5983,3.5997h8.1621a.4799.4799,0,0,0,0-.9598H3.5983a.4799.4799,0,0,0,0,.9598"/><path class="c" d="M9.0882,5.7535H6.2717a.27092.27092,0,0,0-.2719.2718v.4553H9.36V6.0253a.27092.27092,0,0,0-.2718-.2718"/><path class="c" d="M10.3204,6.9605H5.0394a.72006.72006,0,0,0-.7197.7194v5.7606a.72006.72006,0,0,0,.7197.7194h5.281a.72006.72006,0,0,0,.7197-.7194V7.6799a.72006.72006,0,0,0-.7197-.7194"/></g></svg>