<svg xmlns="http://www.w3.org/2000/svg" xmlns:xlink="http://www.w3.org/1999/xlink" viewBox="0 0 15.3598 15.3598"><defs><style>.a{fill:none;}.b{clip-path:url(#a);}.c{fill:#727275;}.d{fill:#0075c3;fill-rule:evenodd;}</style><clipPath id="a"><rect class="a" width="15.3598" height="15.3601"/></clipPath></defs><title>haukehirsch-2</title><g class="b"><rect class="c" x="1.9213" y="5.04" width="11.5189" height="5.2795"/><path class="d" d="M1.2013,4.5601H.2407a.24088.24088,0,0,0-.2398.2398v5.76a.24088.24088,0,0,0,.2398.2398h.9606a.24088.24088,0,0,0,.2398-.2398v-5.76a.24088.24088,0,0,0-.2398-.2398m13.9196,0h-.9607a.24105.24105,0,0,0-.2398.2398v5.76a.24105.24105,0,0,0,.2398.2398h.9607a.24105.24105,0,0,0,.2398-.2398v-5.76a.24105.24105,0,0,0-.2398-.2398Z"/></g></svg>